<svg version="1.1" xmlns="http://www.w3.org/2000/svg" viewBox="0 0 250 250"><desc>Created with Snap</desc><defs><linearGradient x1="-251.90399856567382" y1="-1611.5200454711915" x2="9917.27601477474" y2="-1611.5200454711915" gradientUnits="userSpaceOnUse" id="linearGradientSkx0bxlc6355"><stop offset="0%" stop-color="#081c4f"></stop><stop offset="100%" stop-color="#157c79"></stop></linearGradient></defs><g transform="matrix(0.0246,0,0,0.0246,6.1928,134.692)"><rect x="-251.90399856567382" y="-1611.5200454711915" width="10169.180013340414" height="2434.5600494384767" fill="url('#linearGradientSkx0bxlc6355')"></rect><g transform="matrix(20.9904,0,0,20.9904,7511.0404,-1430.2622)"><title>artifact</title><desc>Created with Sketch.</desc><g stroke="none" stroke-width="1" fill="none" fill-rule="evenodd"><g transform="translate(0.000000, 6.000000)" fill="#000000" fill-rule="nonzero"><polygon points="32.7402222 56.7022222 0 0 30.3677778 0 43.2977778 46.2633333" style="" fill="#ffffff"></polygon><polygon points="37.7224444 12.4555556 34.5195556 0 100 0 85.2906667 25.3855556" style="" fill="#ffffff"></polygon><polygon points="46.5005556 42.586 39.5017778 17.2004444 65.0058889 23.8434444" style="" fill="#ffffff"></polygon><polygon points="69.7508889 24.911 35.1126667 60.1423333 50.2965556 86.7141111 83.5112222 28.5883333" style="" fill="#ffffff"></polygon></g></g><defs></defs></g><g><g transform="matrix(1.024,0,0,-1.024,0,0)"><path d="M69 0L54 255L93 255Q107 160 169 105Q231 51 322 51Q359 51 390 60Q421 69 443 85Q465 102 477 124Q489 147 489 175Q489 199 481 216Q474 234 453 250Q432 267 395 284Q359 301 301 323Q184 368 128 427Q72 487 72 568Q72 615 90 654Q108 693 140 721Q173 749 218 764Q264 780 319 780Q370 780 415 764Q460 748 504 716L522 766L546 766L557 550L518 550Q494 632 443 675Q392 719 325 719Q263 719 224 688Q186 658 186 610Q186 589 193 572Q200 556 219 541Q238 526 271 510Q304 495 356 476Q426 449 475 421Q525 394 556 362Q588 331 603 296Q618 261 618 219Q618 168 596 126Q574 84 534 54Q495 24 440 7Q386 -10 320 -10Q260 -10 212 6Q164 23 113 60L93 0L69 0ZM1468 770L1478 550L1435 550Q1432 599 1420 631Q1409 664 1388 683Q1367 703 1337 710Q1307 718 1267 718Q1228 718 1204 716Q1181 715 1168 711Q1156 708 1152 702Q1148 696 1148 687L1148 163Q1148 131 1152 108Q1157 85 1171 70Q1185 56 1212 48Q1239 41 1283 40L1283 0L864 0L864 40Q909 41 936 48Q963 56 977 70Q992 85 996 108Q1001 131 1001 163L1001 687Q1001 696 997 702Q994 708 983 711Q972 715 951 716Q931 718 898 718Q862 718 829 714Q796 711 771 694Q746 678 730 644Q715 611 714 550L675 550L685 770L1468 770ZM2185 577Q2185 494 2137 438Q2089 382 1984 363L2216 97Q2240 69 2273 54Q2306 40 2340 40L2340 0L2103 0L1855 304Q1830 334 1811 344Q1793 355 1777 355L1777 159Q1777 122 1782 98Q1787 75 1802 62Q1817 49 1845 44Q1874 40 1922 40L1922 0L1525 0L1525 40Q1558 40 1578 44Q1599 49 1610 61Q1622 74 1626 96Q1630 119 1630 154L1630 616Q1630 651 1627 672Q1624 694 1614 706Q1604 719 1585 723Q1567 728 1536 730L1536 770L1882 770Q2027 770 2106 719Q2185 668 2185 577ZM1777 697L1777 415L1842 415Q1936 415 1982 451Q2029 488 2029 572Q2029 636 1990 675Q1951 714 1882 714L1795 714Q1777 714 1777 697ZM2698 40L2698 0L2341 0L2341 40Q2375 41 2395 46Q2416 52 2427 67Q2438 82 2442 109Q2446 137 2446 184L2446 586Q2446 628 2442 655Q2439 683 2429 699Q2419 715 2400 721Q2382 728 2351 730L2351 770L2688 770L2688 730Q2657 728 2638 721Q2620 715 2610 699Q2600 683 2596 655Q2593 628 2593 586L2593 184Q2593 137 2596 109Q2600 82 2611 67Q2623 52 2643 46Q2664 41 2698 40ZM3012 610L3172 172L3302 505Q3321 554 3332 585Q3344 616 3350 636Q3356 656 3358 668Q3360 680 3360 691Q3360 715 3342 722Q3324 730 3270 730L3270 770L3554 770L3554 730Q3471 730 3439 649L3176 -10L3102 -10L2863 574Q2843 621 2827 651Q2811 681 2793 698Q2775 716 2753 722Q2732 729 2703 729L2703 770L3081 770L3081 729Q3055 728 3037 726Q3020 724 3010 719Q3000 715 2996 707Q2992 700 2992 689Q2992 675 2997 656Q3002 637 3012 610ZM3826 680L3826 426Q3890 426 3929 430Q3968 434 3989 446Q4011 459 4020 483Q4029 507 4034 548L4071 548L4071 255L4034 255Q4028 295 4018 319Q4008 343 3986 355Q3964 368 3926 371Q3889 375 3826 375L3826 169Q3826 137 3834 115Q3843 93 3863 79Q3883 66 3916 60Q3949 55 3997 55Q4054 55 4093 63Q4133 71 4159 91Q4185 111 4201 144Q4217 178 4228 229L4268 229L4252 0L3574 0L3574 40Q3607 41 3628 46Q3649 51 3660 63Q3671 75 3675 97Q3679 119 3679 154L3679 616Q3679 651 3675 672Q3672 694 3662 706Q3652 719 3633 723Q3615 728 3585 730L3585 770L4217 770L4224 574L4181 574Q4175 616 4162 643Q4149 671 4126 687Q4103 704 4066 710Q4030 717 3977 717L3864 717Q3838 717 3832 710Q3826 704 3826 680ZM4590 355L4590 161Q4590 123 4595 99Q4600 76 4615 63Q4631 51 4659 46Q4688 41 4736 40L4736 0L4338 0L4338 40Q4371 41 4392 46Q4413 51 4424 63Q4435 75 4439 97Q4443 119 4443 154L4443 616Q4443 651 4439 672Q4436 694 4426 706Q4416 719 4397 723Q4379 728 4349 730L4349 770L4961 770L4973 559L4931 559Q4925 602 4913 631Q4902 661 4881 679Q4860 698 4827 706Q4794 714 4746 714L4608 714Q4590 714 4590 697L4590 408Q4651 408 4689 413Q4728 418 4751 432Q4774 447 4784 472Q4794 497 4798 538L4835 538L4835 225L4798 225Q4792 267 4781 292Q4770 318 4747 331Q4725 345 4687 350Q4649 355 4590 355ZM5732 227L5716 0L5027 0L5027 40Q5060 41 5081 46Q5102 51 5113 63Q5124 75 5128 97Q5132 119 5132 154L5132 616Q5132 651 5128 672Q5125 694 5115 706Q5105 719 5086 723Q5068 728 5038 730L5038 770L5383 770L5383 730Q5349 729 5328 724Q5308 719 5297 706Q5286 693 5282 670Q5279 647 5279 609L5279 190Q5279 148 5287 121Q5296 95 5317 80Q5338 66 5373 60Q5408 55 5460 55Q5518 55 5557 62Q5596 69 5622 88Q5649 108 5665 141Q5681 174 5692 227L5732 227ZM6140 40L6140 0L5783 0L5783 40Q5817 41 5837 46Q5858 52 5869 67Q5880 82 5884 109Q5888 137 5888 184L5888 586Q5888 628 5884 655Q5881 683 5871 699Q5861 715 5842 721Q5824 728 5793 730L5793 770L6130 770L6130 730Q6099 728 6080 721Q6062 715 6052 699Q6042 683 6038 655Q6035 628 6035 586L6035 184Q6035 137 6038 109Q6042 82 6053 67Q6065 52 6085 46Q6106 41 6140 40ZM6675 424L6902 111Q6927 77 6960 58Q6994 40 7035 40L7035 0L6662 0L6662 40Q6687 40 6702 42Q6718 44 6726 47Q6735 50 6737 55Q6740 60 6740 66Q6740 72 6737 78Q6735 85 6729 95Q6723 105 6713 120Q6703 135 6687 157L6580 309L6511 224Q6489 197 6468 174Q6448 151 6431 131Q6415 111 6405 95Q6395 80 6395 68Q6395 52 6415 46Q6435 40 6481 40L6481 0L6174 0L6174 40Q6201 40 6220 42Q6240 45 6255 52Q6271 59 6284 71Q6298 84 6315 104L6534 371L6301 673Q6274 708 6247 719Q6220 730 6186 730L6186 770L6562 770L6562 730Q6526 730 6510 721Q6494 712 6494 694Q6494 667 6524 627L6627 485L6756 639Q6771 657 6777 671Q6784 686 6784 699Q6784 706 6781 712Q6778 718 6769 722Q6761 726 6745 728Q6729 730 6703 730L6703 770L7001 770L7001 730Q6959 730 6936 724Q6913 718 6898 700L6675 424Z" style="" fill="#ffffff"></path></g></g></g></svg>